<?xml version="1.0" encoding="UTF-8" standalone="no"?>
<!DOCTYPE svg PUBLIC "-//W3C//DTD SVG 1.1//EN" "http://www.w3.org/Graphics/SVG/1.1/DTD/svg11.dtd">
<svg width="100%" height="100%" viewBox="0 0 587 589" version="1.1" xmlns="http://www.w3.org/2000/svg" xmlns:xlink="http://www.w3.org/1999/xlink" xml:space="preserve" xmlns:serif="http://www.serif.com/" style="fill-rule:evenodd;clip-rule:evenodd;stroke-linecap:round;stroke-linejoin:round;stroke-miterlimit:1.5;">
    <style>
        @keyframes bifrost-pulse {
            0%, 100% { opacity: 1; }
            50%      { opacity: 0.35; }
        }
        .bf-dot-orange { animation: bifrost-pulse 2.6s ease-in-out infinite; }
        .bf-dot-blue   { animation: bifrost-pulse 2.6s ease-in-out 1.3s infinite; }
        @media (prefers-reduced-motion: reduce) {
            .bf-dot-orange, .bf-dot-blue { animation: none; }
        }
    </style>
    
        <path class="bf-dot-orange" d="M231.091,381.421c0,-34.552 28.052,-62.604 62.604,-62.604c34.552,0 62.604,28.052 62.604,62.604c0,34.552 -28.052,62.604 -62.604,62.604c-34.552,0 -62.604,-28.052 -62.604,-62.604Z" style="fill:#fe5000;stroke:#00ff0f;stroke-opacity:0;stroke-width:0.21px;"/>
        <path class="bf-dot-blue" d="M230.782,209.459c0,-34.552 28.052,-62.604 62.604,-62.604c34.552,0 62.604,28.052 62.604,62.604c0,34.552 -28.052,62.604 -62.604,62.604c-34.552,0 -62.604,-28.052 -62.604,-62.604Z" style="fill:#01f;stroke:#00ff0f;stroke-opacity:0;stroke-width:0.21px;"/>
        <path d="M292.342,0c-176.449,0 -292.342,128.422 -292.342,294.43c0,167.052 115.893,294.43 292.342,294.43c177.493,0 294.43,-127.377 294.43,-294.43c0,-166.008 -116.937,-294.43 -294.43,-294.43Zm1.044,119.025c83.526,0 127.377,70.997 127.377,175.405c0,105.452 -43.851,177.493 -127.377,177.493c-81.438,0 -127.377,-72.041 -127.377,-177.493c0,-104.408 45.939,-175.405 127.377,-175.405Z" style="fill:#fff;"/>
</svg>