<?xml version="1.0" encoding="UTF-8" standalone="no"?><!DOCTYPE svg PUBLIC "-//W3C//DTD SVG 1.1//EN" "http://www.w3.org/Graphics/SVG/1.1/DTD/svg11.dtd"><svg width="100%" height="100%" viewBox="0 0 872 285" version="1.1" xmlns="http://www.w3.org/2000/svg" xmlns:xlink="http://www.w3.org/1999/xlink" xml:space="preserve" xmlns:serif="http://www.serif.com/" style="fill-rule:evenodd;clip-rule:evenodd;stroke-linecap:round;stroke-linejoin:round;stroke-miterlimit:1.5;"><g><g><g><g><path d="M319.539,178.083l69.121,0c15.126,0 26.806,-3.638 35.231,-10.531c8.999,-7.084 13.977,-17.424 13.977,-31.018c0,-17.424 -10.148,-30.253 -28.529,-34.656l0,-0.766c15.318,-4.787 22.977,-14.36 22.977,-28.529c0,-11.297 -4.212,-20.296 -12.063,-27.189c-7.276,-6.319 -18.573,-9.765 -33.316,-9.765l-67.398,0l0,142.455Zm32.359,-85.205l0,-31.976l30.827,0c11.105,0 18.19,5.744 18.19,16.084c0,10.531 -7.467,15.892 -18.573,15.892l-30.444,0Zm0,59.548l0,-36.763l32.742,0c11.871,0 20.87,6.127 20.87,18.573c0,5.361 -1.915,9.957 -5.17,13.02c-3.446,3.255 -8.616,5.17 -15.126,5.17l-33.316,0Z" style="fill:#fff;"/><rect x="440.927" y="76.22" width="30.061" height="101.863" style="fill:#fff;"/><circle cx="642.471" cy="50.85" r="15.222" style="fill:#01f;stroke:#00ff0f;stroke-opacity:0;stroke-width:0.21px;"/><circle cx="680.683" cy="50.85" r="15.222" style="fill:#fe5000;stroke:#00ff0f;stroke-opacity:0;stroke-width:0.21px;"/><path d="M661.76,178.083c31.039,0 51.426,-22.591 51.426,-51.793c0,-29.386 -20.387,-51.793 -51.426,-51.793c-31.223,0 -51.793,22.407 -51.793,51.793c0,29.203 20.57,51.793 51.793,51.793Zm-0.184,-20.938c-14.693,0 -22.407,-12.489 -22.407,-30.856c0,-18.55 7.714,-31.223 22.407,-31.223c14.326,0 22.407,12.673 22.407,31.223c0,18.366 -8.081,30.856 -22.407,30.856Z" style="fill:#fff;"/><path d="M473.455,95.75l15.318,0l0,82.333l30.061,0l0,-82.333l21.253,0l0,-19.53l-21.253,0l0,-6.51c0,-11.488 6.127,-12.446 21.253,-11.871l0,-21.445c-4.212,-0.574 -8.425,-0.766 -12.446,-0.766c-13.02,-0.191 -23.551,2.106 -30.253,8.042c-5.936,5.361 -8.616,13.02 -8.616,23.934l0,8.616l-15.318,0l0,19.53Z" style="fill:#fff;"/><path d="M572.807,76.22l-28.912,0l0,101.863l30.061,0l0,-47.294c0,-19.913 10.722,-30.061 26.998,-29.87c2.106,0 4.212,0.191 6.319,0.574l0.766,0l0,-26.232c-1.34,-0.574 -3.446,-0.766 -6.319,-0.766c-12.637,0 -21.828,5.744 -28.338,19.913l-0.574,0l0,-18.19Z" style="fill:#fff;"/><path d="M763.708,178.083c25.346,0 44.079,-11.02 44.079,-32.141c0,-24.611 -19.836,-29.203 -37.284,-32.325c-13.407,-2.388 -24.06,-3.49 -24.06,-10.836c0,-6.245 5.694,-9.918 14.509,-9.918c9.183,0 14.693,3.49 16.53,10.469l26.815,0c-2.571,-17.081 -16.162,-28.835 -43.345,-28.835c-22.958,0 -41.141,10.469 -41.141,30.488c0,22.774 17.632,27.182 35.08,30.488c13.591,2.571 25.162,3.673 25.162,12.489c0,6.979 -5.877,11.203 -16.162,11.203c-11.203,0 -18.183,-5.143 -19.836,-14.326l-27.182,0c1.469,19.652 18.55,33.243 46.834,33.243Z" style="fill:#fff;"/><path d="M807.066,94.929l15.188,0l0,56.575c0,20.504 12.72,26.579 31.515,26.579c7.974,0 14.049,-0.949 17.276,-1.519l0,-22.212l-1.519,0c-1.898,0.19 -4.936,0.38 -6.835,0.38c-7.024,0 -11.201,-2.088 -11.201,-9.682l0,-50.12l19.744,0l0,-18.985l-19.744,0l0,-32.274l-29.237,0l0,32.274l-15.188,0l0,18.985Z" style="fill:#fff;"/></g><circle cx="455.957" cy="50.85" r="15.222" style="fill:#fff;stroke:#00ff0f;stroke-opacity:0;stroke-width:0.21px;"/></g><g transform="matrix(48.000744,0,0,48.000744,678.68014,248.691856)"></g><text x="316.323px" y="248.692px" style="font-family:'HaasGrotDispTrial-55Roman', 'Haas Grot Disp Trial', sans-serif;font-size:48.001px;fill:#fff;">N<tspan x="354.387px 384.292px 404.308px 443.86px 475.109px 496.373px 524.646px 537.078px 571.446px 585.847px 622.471px 635.431px 669.8px " y="248.692px 248.692px 248.692px 248.692px 248.692px 248.692px 248.692px 248.692px 248.692px 248.692px 248.692px 248.692px 248.692px ">etwork S.A.S.</tspan></text><g><path d="M111.818,184.559c0,-16.719 13.574,-30.292 30.292,-30.292c16.719,0 30.292,13.574 30.292,30.292c0,16.719 -13.574,30.292 -30.292,30.292c-16.719,0 -30.292,-13.574 -30.292,-30.292Z" style="fill:#fe5000;stroke:#00ff0f;stroke-opacity:0;stroke-width:0.21px;"/><path d="M111.669,101.351c0,-16.719 13.574,-30.292 30.292,-30.292c16.719,0 30.292,13.574 30.292,30.292c0,16.719 -13.574,30.292 -30.292,30.292c-16.719,0 -30.292,-13.574 -30.292,-30.292Z" style="fill:#01f;stroke:#00ff0f;stroke-opacity:0;stroke-width:0.21px;"/><path d="M141.456,0c-85.379,0 -141.456,62.14 -141.456,142.466c0,80.832 56.077,142.466 141.456,142.466c85.884,0 142.466,-61.634 142.466,-142.466c0,-80.327 -56.582,-142.466 -142.466,-142.466Zm0.505,57.593c40.416,0 61.634,34.354 61.634,84.873c0,51.025 -21.218,85.884 -61.634,85.884c-39.406,0 -61.634,-34.859 -61.634,-85.884c0,-50.52 22.229,-84.873 61.634,-84.873Z" style="fill:#fff;"/></g></g></g></svg>